<svg width="21" height="16" viewBox="0 0 21 16" fill="none" xmlns="http://www.w3.org/2000/svg">
<path d="M20.1114 0.500079C19.2598 1.06298 18.3169 1.4935 17.319 1.77508C16.7834 1.198 16.0716 0.788989 15.2798 0.603351C14.4881 0.417713 13.6546 0.464409 12.8921 0.737123C12.1296 1.00984 11.4749 1.49541 11.0165 2.12818C10.5581 2.76094 10.3182 3.51036 10.3291 4.27508V5.10841C8.7663 5.14639 7.21772 4.82159 5.82129 4.16295C4.42486 3.50431 3.22393 2.53228 2.32546 1.33341C2.32546 1.33341 -1.23171 8.83341 6.77194 12.1667C4.94046 13.3317 2.75869 13.9159 0.546875 13.8334C8.55052 18.0001 18.3328 13.8334 18.3328 4.25008C18.3319 4.01796 18.3081 3.78641 18.2616 3.55841C19.1692 2.71966 19.8097 1.66067 20.1114 0.500079Z" fill="white"/>
</svg>
